<?xml version="1.0" encoding="UTF-8" standalone="no"?><!-- Generator: Gravit.io --><svg xmlns="http://www.w3.org/2000/svg" xmlns:xlink="http://www.w3.org/1999/xlink" style="isolation:isolate" viewBox="0 0 703.697 177" width="703.697pt" height="177pt"><defs><clipPath id="_clipPath_Ka2MHXwMrqiSo91idd1rQ4jbEsJSVie2"><rect width="703.697" height="177"/></clipPath></defs><g clip-path="url(#_clipPath_Ka2MHXwMrqiSo91idd1rQ4jbEsJSVie2)"><path d=" M 90.725 55.399 L 90.725 55.399 L 90.725 55.399 Q 89.68 62.85 96.472 72.886 L 96.472 72.886 L 96.472 72.886 Q 103.264 82.921 113.185 90.469 L 113.185 90.469 L 113.185 90.469 Q 110.503 92.601 105.379 102.827 L 105.379 102.827 L 105.379 102.827 Q 100.255 113.052 97.297 118.584 L 97.297 118.584 L 97.297 118.584 Q 94.339 124.116 90.467 129.019 L 90.467 129.019 L 90.467 129.019 Q 86.595 133.922 83.274 133.537 L 83.274 133.537 L 83.274 133.537 Q 82.587 133.458 82.257 133.303 L 82.257 133.303 L 80.635 137.303 L 80.635 137.303 Q 85.73 142.431 92.944 143.266 L 92.944 143.266 L 92.944 143.266 Q 100.158 144.102 103.565 140.716 L 103.565 140.716 L 103.565 140.716 Q 106.972 137.33 110.828 126.026 L 110.828 126.026 L 110.828 126.026 Q 111.343 124.574 113.872 116.723 L 113.872 116.723 L 113.872 116.723 Q 119.446 99.57 122.085 95.804 L 122.085 95.804 L 122.085 95.804 Q 122.759 95.998 124.82 96.237 L 124.82 96.237 L 124.82 96.237 Q 126.881 96.476 128.004 95.792 L 128.004 95.792 L 128.004 95.792 Q 128.898 95.081 129.256 91.981 L 129.256 91.981 L 129.256 91.981 Q 129.613 88.882 129.232 87.151 L 129.232 87.151 L 129.232 87.151 Q 128.852 85.42 125.588 85.042 L 125.588 85.042 L 125.588 85.042 Q 122.325 84.664 119.123 86.271 L 119.123 86.271 L 119.123 86.271 Q 115.318 83.038 110.149 74.528 L 110.149 74.528 L 110.149 74.528 Q 107.617 69.92 108.477 62.458 L 108.477 62.458 L 108.477 62.458 Q 108.861 59.129 109.857 55.522 L 109.857 55.522 L 109.857 55.522 Q 98.786 48.888 96.751 48.419 L 96.751 48.419 L 94.716 47.951 L 94.716 47.951 Q 91.413 49.43 90.725 55.399 Z  M 142.147 58.098 L 131.206 57.828 C 130.018 57.798 129.136 58.736 129.237 59.92 Q 134.51 121.542 133.641 138.565 C 133.58 139.752 134.495 140.675 135.683 140.624 L 148.609 140.073 C 149.797 140.022 150.685 139.019 150.592 137.834 L 144.469 60.298 C 144.376 59.113 143.335 58.127 142.147 58.098 Z " fill="rgb(0,0,0)"/><path d=" M 56.396 85.126 L 56.396 85.126 Q 60.202 84.267 63.762 79.479 L 63.762 79.479 L 63.762 79.479 Q 67.322 74.691 67.322 67.509 L 67.322 67.509 L 67.322 67.509 Q 67.322 60.328 62.227 57.013 L 62.227 57.013 L 62.227 57.013 Q 57.133 54.755 46.575 54.755 Q 34.939 56.083 28.666 60.746 C 26.29 61.992 21.983 66.667 18.439 71.514 C 15.001 76.215 12.48 84.194 11.978 86.271 C 10.876 91.362 9.572 98.349 9.824 106.759 C 10.076 115.17 14.317 136.707 27.054 146.895 C 39.791 157.083 55.321 163.654 73.702 166.278 C 90.762 169.178 103.118 167.624 109.857 166.278 C 116.595 164.932 134.382 156.196 139.048 153.356 C 143.713 150.516 149.343 145.694 154.759 140.938 Q 156.614 138.717 157.056 137.95 C 159.004 134.566 159.917 134.918 159.095 138.735 Q 158.7 140.568 156.835 144.126 C 152.412 150.799 146.183 158.127 136.894 164.125 C 131.644 167.423 117.97 174.316 108.477 175.766 C 98.985 177.215 86.92 177.597 72.64 175.766 C 49.622 172.299 32.202 164.041 18.439 152.075 C 5.853 141.174 0.262 120.315 0.079 106.759 C -0.444 93.195 1.653 83.733 5.885 74.2 L 5.885 74.2 L 5.885 74.2 C 7.292 69.479 14.403 59.686 20.856 55.167 C 27.515 49.657 37.731 46.815 50.749 46.333 L 50.749 46.333 L 50.749 46.333 Q 67.076 46.333 76.652 51.489 L 76.652 51.489 L 76.652 51.489 Q 86.227 56.645 86.227 67.325 L 86.227 67.325 L 86.227 67.325 Q 86.227 75.673 80.458 81.197 L 80.458 81.197 L 80.458 81.197 Q 74.688 86.722 65.726 89.545 L 65.726 89.545 L 65.726 89.545 Q 74.688 90.896 79.967 96.297 L 79.967 96.297 L 79.967 96.297 C 83.095 100.331 83.593 101.832 84.263 103.172 L 84.263 103.172 L 84.263 103.172 Q 85.859 107.714 85.859 112.87 L 85.859 112.87 L 85.859 112.87 Q 85.859 125.392 78.371 133.494 L 78.371 133.494 L 78.371 133.494 Q 70.882 141.597 61.184 141.597 L 61.184 141.597 L 61.184 141.597 Q 54.555 141.597 50.135 137.607 L 50.135 137.607 L 50.135 137.607 Q 45.716 133.617 45.716 126.067 L 45.716 126.067 L 45.716 126.067 Q 45.716 118.517 51.301 111.704 L 51.301 111.704 L 51.301 111.704 Q 56.887 104.891 64.989 100.962 L 64.989 100.962 L 64.989 100.962 Q 61.798 92.737 53.573 92.737 L 53.573 92.737 L 52.713 92.737 L 52.713 92.737 Q 51.977 89.545 53.082 85.494 L 53.082 85.494 L 53.082 85.494 Q 54.923 85.494 56.396 85.126 L 56.396 85.126 Z  M 38.767 60.746 Q 53.388 57.537 55.23 58.151 L 55.23 58.151 L 55.23 58.151 Q 41.985 125.741 40.881 138.263 L 40.881 138.263 L 40.881 138.263 L 25.845 138.263 L 38.767 60.746 Z  M 58.238 131.162 L 58.238 131.162 L 58.238 131.162 Q 61.552 131.162 64.13 125.085 L 64.13 125.085 L 64.13 125.085 Q 66.708 119.008 66.708 111.397 L 66.708 111.397 L 66.585 109.31 L 66.585 109.31 Q 62.043 111.029 57.931 115.571 L 57.931 115.571 L 57.931 115.571 Q 53.818 120.113 53.818 125.269 L 53.818 125.269 L 53.818 125.269 Q 53.818 128.338 55.23 129.75 L 55.23 129.75 L 55.23 129.75 Q 56.642 131.162 58.238 131.162 Z " fill="rgb(0,0,0)"/><path d=" M 528.765 123.757 L 528.765 123.757 L 528.765 123.757 Q 519.17 123.757 513.258 116.537 L 513.258 116.537 L 513.258 116.537 Q 507.346 109.316 507.346 97.395 L 507.346 97.395 L 507.346 97.395 Q 507.346 85.474 511.465 75.734 L 511.465 75.734 L 511.465 75.734 Q 515.584 65.994 523.241 59.888 L 523.241 59.888 L 523.241 59.888 Q 530.897 53.782 540.201 53.782 L 540.201 53.782 L 540.201 53.782 Q 543.69 53.782 546.404 54.848 L 546.404 54.848 L 546.404 54.848 Q 553.382 50.196 560.845 50.196 L 560.845 50.196 L 560.845 50.196 Q 564.334 50.196 567.387 51.214 L 567.387 51.214 L 567.387 51.214 Q 570.44 52.232 571.894 53.685 L 571.894 53.685 L 571.894 53.685 Q 571.118 56.981 569.374 59.694 L 569.374 59.694 L 569.374 59.694 Q 564.819 56.302 560.166 56.302 L 560.166 56.302 L 560.166 56.302 Q 555.514 56.302 551.638 58.144 L 551.638 58.144 L 551.638 58.144 Q 556.193 62.989 556.193 71.857 L 556.193 71.857 L 556.193 71.857 Q 556.193 80.725 551.541 87.994 L 551.541 87.994 L 551.541 87.994 Q 546.889 95.263 539.911 95.263 L 539.911 95.263 L 539.911 95.263 Q 535.743 95.263 533.175 91.774 L 533.175 91.774 L 533.175 91.774 Q 530.607 88.285 530.607 83.051 L 530.607 83.051 L 530.607 83.051 Q 530.607 70.452 540.008 60.276 L 540.008 60.276 L 540.008 60.276 Q 532.351 60.567 527.602 70.307 L 527.602 70.307 L 527.602 70.307 Q 522.853 80.047 522.853 93.809 L 522.853 93.809 L 522.853 93.809 Q 522.853 113.871 534.483 113.871 L 534.483 113.871 L 534.483 113.871 Q 542.43 113.871 551.444 103.986 L 551.444 103.986 L 554.836 106.796 L 554.836 106.796 Q 553.576 109.025 550.717 112.321 L 550.717 112.321 L 550.717 112.321 Q 547.858 115.616 545.047 117.845 L 545.047 117.845 L 545.047 117.845 Q 542.237 120.074 537.778 121.916 L 537.778 121.916 L 537.778 121.916 Q 533.32 123.757 528.765 123.757 Z  M 549.505 72.875 L 549.505 72.875 L 549.505 72.875 Q 549.505 64.928 545.92 62.02 L 545.92 62.02 L 545.92 62.02 Q 541.655 65.8 539.087 71.227 L 539.087 71.227 L 539.087 71.227 Q 536.518 76.655 536.518 82.47 L 536.518 82.47 L 536.518 82.47 Q 536.518 85.474 537.633 87.413 L 537.633 87.413 L 537.633 87.413 Q 538.748 89.351 540.492 89.351 L 540.492 89.351 L 540.492 89.351 Q 544.272 89.351 546.889 84.021 L 546.889 84.021 L 546.889 84.021 Q 549.505 78.69 549.505 72.875 Z  M 569.18 58.628 L 569.18 58.628 L 569.18 58.628 Q 569.18 55.43 568.598 54.073 L 568.598 54.073 L 568.598 54.073 Q 576.158 51.456 582.845 51.456 L 582.845 51.456 L 582.845 51.456 Q 583.717 52.329 583.717 55.914 L 583.717 55.914 L 583.717 55.914 Q 583.717 62.311 578.29 85.377 L 578.29 85.377 L 578.29 85.377 Q 586.14 79.659 592.052 79.659 L 592.052 79.659 L 592.052 79.659 Q 595.735 79.659 597.625 81.985 L 597.625 81.985 L 597.625 81.985 Q 599.515 84.311 599.515 88.14 L 599.515 88.14 L 599.515 88.14 Q 599.515 91.968 597.286 100.642 L 597.286 100.642 L 597.286 100.642 Q 595.057 109.316 595.057 112.514 L 595.057 112.514 L 595.057 112.514 Q 595.057 115.713 595.832 115.713 L 595.832 115.713 L 595.832 115.713 Q 596.608 115.713 599.903 113.968 L 599.903 113.968 L 601.066 113.387 L 602.81 116.779 L 602.81 116.779 Q 601.938 117.554 600.484 118.717 L 600.484 118.717 L 600.484 118.717 Q 599.031 119.88 595.154 121.819 L 595.154 121.819 L 595.154 121.819 Q 591.277 123.757 588.03 123.757 L 588.03 123.757 L 588.03 123.757 Q 584.784 123.757 582.845 121.673 L 582.845 121.673 L 582.845 121.673 Q 580.907 119.589 580.907 116.052 L 580.907 116.052 L 580.907 116.052 Q 580.907 112.514 583.088 103.162 L 583.088 103.162 L 583.088 103.162 Q 585.268 93.809 585.268 91.338 L 585.268 91.338 L 585.268 91.338 Q 585.268 88.867 583.233 88.867 L 583.233 88.867 L 583.233 88.867 Q 580.713 88.867 576.933 90.999 L 576.933 90.999 L 576.933 90.999 Q 571.603 114.453 571.603 121.431 L 571.603 121.431 L 571.603 121.431 Q 567.532 122.982 557.744 122.982 L 557.744 122.982 L 557.744 122.982 Q 557.647 121.334 557.647 120.074 L 557.647 120.074 L 557.647 120.074 Q 557.647 115.907 563.413 91.58 L 563.413 91.58 L 563.413 91.58 Q 569.18 67.254 569.18 58.628 Z  M 625.974 85.668 L 625.974 85.668 L 625.974 85.668 Q 625.974 89.739 623.357 99.673 L 623.357 99.673 L 623.357 99.673 Q 620.74 109.607 620.74 112.66 L 620.74 112.66 L 620.74 112.66 Q 620.74 115.713 621.612 115.713 L 621.612 115.713 L 621.612 115.713 Q 622.194 115.713 626.071 113.871 L 626.071 113.871 L 627.234 113.29 L 628.881 116.682 L 628.881 116.682 Q 628.009 117.457 626.555 118.62 L 626.555 118.62 L 626.555 118.62 Q 625.101 119.783 621.128 121.77 L 621.128 121.77 L 621.128 121.77 Q 617.154 123.757 613.762 123.757 L 613.762 123.757 L 613.762 123.757 Q 610.37 123.757 608.432 121.673 L 608.432 121.673 L 608.432 121.673 Q 606.493 119.589 606.493 116.052 L 606.493 116.052 L 606.493 116.052 Q 606.493 112.514 608.916 103.453 L 608.916 103.453 L 608.916 103.453 Q 611.339 94.391 611.339 91.677 L 611.339 91.677 L 611.339 91.677 Q 611.339 87.607 608.819 84.021 L 608.819 84.021 L 607.947 82.858 L 608.044 81.598 L 608.044 81.598 Q 613.181 80.144 624.714 80.144 L 624.714 80.144 L 624.714 80.144 Q 625.974 81.598 625.974 85.668 Z  M 614.925 69.531 L 614.925 69.531 L 614.925 69.531 Q 612.987 67.642 612.987 64.443 L 612.987 64.443 L 612.987 64.443 Q 612.987 61.245 615.652 58.822 L 615.652 58.822 L 615.652 58.822 Q 618.317 56.399 621.806 56.399 L 621.806 56.399 L 621.806 56.399 Q 625.295 56.399 627.234 58.337 L 627.234 58.337 L 627.234 58.337 Q 629.172 60.276 629.172 63.426 L 629.172 63.426 L 629.172 63.426 Q 629.172 66.575 626.41 68.998 L 626.41 68.998 L 626.41 68.998 Q 623.648 71.421 620.256 71.421 L 620.256 71.421 L 620.256 71.421 Q 616.863 71.421 614.925 69.531 Z  M 639.784 123.757 L 639.784 123.757 L 639.784 123.757 Q 636.441 123.757 634.26 121.528 L 634.26 121.528 L 634.26 121.528 Q 632.079 119.299 632.079 115.277 L 632.079 115.277 L 632.079 115.277 Q 632.079 111.255 636.877 89.593 L 636.877 89.593 L 636.877 89.593 Q 641.674 67.932 641.674 58.337 L 641.674 58.337 L 641.093 54.073 L 641.093 54.073 Q 648.652 51.456 655.243 51.456 L 655.243 51.456 L 655.243 51.456 Q 656.212 52.813 656.212 56.205 L 656.212 56.205 L 656.212 56.205 Q 656.212 63.959 651.318 86.201 L 651.318 86.201 L 651.318 86.201 Q 646.423 108.444 646.423 112.078 L 646.423 112.078 L 646.423 112.078 Q 646.423 115.713 647.296 115.713 L 647.296 115.713 L 654.08 113.29 L 655.824 116.682 L 655.824 116.682 Q 652.529 119.299 647.829 121.528 L 647.829 121.528 L 647.829 121.528 Q 643.128 123.757 639.784 123.757 Z  M 657.666 105.827 L 657.666 105.827 L 657.666 105.827 Q 657.666 93.712 664.983 86.686 L 664.983 86.686 L 664.983 86.686 Q 672.3 79.659 681.605 79.659 L 681.605 79.659 L 681.605 79.659 Q 687.323 79.659 691.006 82.47 L 691.006 82.47 L 691.006 82.47 Q 694.688 85.281 694.688 89.981 L 694.688 89.981 L 694.688 89.981 Q 694.688 94.682 692.314 97.88 L 692.314 97.88 L 692.314 97.88 Q 689.939 101.078 686.547 102.823 L 686.547 102.823 L 686.547 102.823 Q 679.666 106.215 673.948 107.087 L 673.948 107.087 L 671.622 107.378 L 671.622 107.378 Q 672.3 116.488 679.085 116.488 L 679.085 116.488 L 679.085 116.488 Q 681.411 116.488 684.027 115.325 L 684.027 115.325 L 684.027 115.325 Q 686.644 114.162 688.098 112.999 L 688.098 112.999 L 689.552 111.836 L 691.878 114.937 L 691.878 114.937 Q 691.102 116.004 688.776 117.748 L 688.776 117.748 L 688.776 117.748 Q 686.45 119.493 684.415 120.656 L 684.415 120.656 L 684.415 120.656 Q 678.794 123.757 672.107 123.757 L 672.107 123.757 L 672.107 123.757 Q 665.419 123.757 661.543 119.008 L 661.543 119.008 L 661.543 119.008 Q 657.666 114.259 657.666 105.827 Z  M 671.525 102.629 L 671.525 102.629 Q 676.468 101.757 679.375 98.461 L 679.375 98.461 L 679.375 98.461 Q 682.283 95.166 682.283 89.933 L 682.283 89.933 L 682.283 89.933 Q 682.283 84.699 679.182 84.699 L 679.182 84.699 L 679.182 84.699 Q 675.499 84.699 673.512 90.95 L 673.512 90.95 L 673.512 90.95 Q 671.525 97.201 671.525 102.629 L 671.525 102.629 L 671.525 102.629 Z  M 207.386 82.955 L 207.386 82.955 Q 210.39 82.276 213.201 78.496 L 213.201 78.496 L 213.201 78.496 Q 216.011 74.717 216.011 69.047 L 216.011 69.047 L 216.011 69.047 Q 216.011 63.377 211.989 60.76 L 211.989 60.76 L 211.989 60.76 Q 207.967 58.144 199.632 58.144 L 199.632 58.144 L 199.632 58.144 Q 187.227 58.144 179.328 62.893 L 179.328 62.893 L 179.328 62.893 Q 171.429 67.642 171.429 73.069 L 171.429 73.069 L 171.429 73.069 Q 171.429 75.88 173.561 77.576 L 173.561 77.576 L 173.561 77.576 Q 175.693 79.272 177.826 79.853 L 177.826 79.853 L 177.826 79.853 Q 177.535 83.633 175.209 87.025 L 175.209 87.025 L 175.209 87.025 Q 171.429 86.347 168.231 83.003 L 168.231 83.003 L 168.231 83.003 Q 165.032 79.659 165.032 74.329 L 165.032 74.329 L 165.032 74.329 Q 165.032 64.831 175.596 58.58 L 175.596 58.58 L 175.596 58.58 Q 186.16 52.329 202.927 52.329 L 202.927 52.329 L 202.927 52.329 Q 215.817 52.329 223.377 56.399 L 223.377 56.399 L 223.377 56.399 Q 230.937 60.47 230.937 68.901 L 230.937 68.901 L 230.937 68.901 Q 230.937 75.492 226.381 79.853 L 226.381 79.853 L 226.381 79.853 Q 221.826 84.214 214.751 86.444 L 214.751 86.444 L 214.751 86.444 Q 221.826 87.51 225.994 91.774 L 225.994 91.774 L 225.994 91.774 Q 233.747 89.739 240.338 89.739 L 240.338 89.739 L 245.087 90.03 L 245.087 90.03 Q 245.28 90.708 245.28 91.386 L 245.28 91.386 L 245.28 91.386 Q 245.28 94.779 244.311 96.717 L 244.311 96.717 L 244.311 96.717 Q 241.694 96.135 237.285 96.135 L 237.285 96.135 L 237.285 96.135 Q 232.875 96.135 229.386 97.201 L 229.386 97.201 L 229.386 97.201 Q 230.646 100.787 230.646 104.858 L 230.646 104.858 L 230.646 104.858 Q 230.646 114.744 224.734 121.14 L 224.734 121.14 L 224.734 121.14 Q 218.822 127.537 211.165 127.537 L 211.165 127.537 L 211.165 127.537 Q 205.932 127.537 202.443 124.387 L 202.443 124.387 L 202.443 124.387 Q 198.954 121.237 198.954 115.277 L 198.954 115.277 L 198.954 115.277 Q 198.954 109.316 203.363 103.937 L 203.363 103.937 L 203.363 103.937 Q 207.773 98.558 214.17 95.457 L 214.17 95.457 L 214.17 95.457 Q 211.65 88.963 205.156 88.963 L 205.156 88.963 L 204.478 88.963 L 204.478 88.963 Q 203.896 86.444 204.769 83.245 L 204.769 83.245 L 204.769 83.245 Q 206.222 83.245 207.386 82.955 L 207.386 82.955 L 207.386 82.955 Z  M 188.583 72.39 L 188.583 72.39 L 188.583 72.39 Q 188.583 70.549 188.147 69.677 L 188.147 69.677 L 188.147 69.677 Q 187.711 68.805 186.257 67.157 L 186.257 67.157 L 186.354 66.479 L 186.354 66.479 Q 191.491 63.474 199.147 63.474 L 199.147 63.474 L 199.147 63.474 Q 202.152 63.474 203.606 63.959 L 203.606 63.959 L 203.606 63.959 Q 204.09 64.928 204.09 68.078 L 204.09 68.078 L 204.09 68.078 Q 204.09 71.227 199.099 91.435 L 199.099 91.435 L 199.099 91.435 Q 194.108 111.642 193.235 121.528 L 193.235 121.528 L 193.235 121.528 Q 187.517 123.175 180.539 123.175 L 180.539 123.175 L 180.539 123.175 Q 178.892 123.175 178.116 122.885 L 178.116 122.885 L 178.116 122.885 Q 178.601 116.779 183.592 97.492 L 183.592 97.492 L 183.592 97.492 Q 188.583 78.206 188.583 72.39 Z  M 208.839 119.299 L 208.839 119.299 L 208.839 119.299 Q 211.456 119.299 213.491 114.501 L 213.491 114.501 L 213.491 114.501 Q 215.527 109.704 215.527 103.695 L 215.527 103.695 L 215.43 102.047 L 215.43 102.047 Q 211.844 103.404 208.597 106.99 L 208.597 106.99 L 208.597 106.99 Q 205.35 110.576 205.35 114.647 L 205.35 114.647 L 205.35 114.647 Q 205.35 117.07 206.465 118.184 L 206.465 118.184 L 206.465 118.184 Q 207.579 119.299 208.839 119.299 Z  M 240.725 122.885 L 240.725 122.885 L 240.047 122.885 L 240.047 122.885 Q 239.853 122.109 239.853 119.347 L 239.853 119.347 L 239.853 119.347 Q 239.853 116.585 242.47 104.47 L 242.47 104.47 L 242.47 104.47 Q 245.087 92.356 245.087 90.611 L 245.087 90.611 L 245.087 90.611 Q 245.087 87.607 242.373 84.021 L 242.373 84.021 L 241.501 82.858 L 241.597 81.598 L 241.597 81.598 Q 246.831 80.144 258.364 80.144 L 258.364 80.144 L 258.364 80.144 Q 259.527 82.664 259.527 87.219 L 259.527 87.219 L 259.527 87.219 Q 260.593 85.474 263.986 82.567 L 263.986 82.567 L 263.986 82.567 Q 267.378 79.659 270.964 79.659 L 270.964 79.659 L 270.964 79.659 Q 276.197 79.659 276.197 88.77 L 276.197 88.77 L 276.197 88.77 Q 275.713 89.351 274.889 90.272 L 274.889 90.272 L 274.889 90.272 Q 274.065 91.193 271.594 92.84 L 271.594 92.84 L 271.594 92.84 Q 269.122 94.488 266.796 94.875 L 266.796 94.875 L 266.796 94.875 Q 266.699 94.875 265.149 92.259 L 265.149 92.259 L 265.149 92.259 Q 263.598 89.642 262.823 89.642 L 262.823 89.642 L 262.823 89.642 Q 260.4 90.514 258.558 92.549 L 258.558 92.549 L 258.558 92.549 Q 254.1 112.611 254.1 118.523 L 254.1 118.523 L 254.1 118.523 Q 254.1 120.656 254.197 121.528 L 254.197 121.528 L 254.197 121.528 Q 250.805 122.885 240.725 122.885 Z  M 287.633 123.757 L 287.633 123.757 L 287.633 123.757 Q 280.946 123.757 277.166 119.056 L 277.166 119.056 L 277.166 119.056 Q 273.387 114.356 273.387 105.924 L 273.387 105.924 L 273.387 105.924 Q 273.387 95.166 279.153 87.413 L 279.153 87.413 L 279.153 87.413 Q 284.92 79.659 295.096 79.659 L 295.096 79.659 L 298.585 79.853 L 298.585 79.853 Q 300.233 78.981 302.268 78.981 L 302.268 78.981 L 302.268 78.981 Q 309.925 78.981 309.925 93.422 L 309.925 93.422 L 309.925 93.422 Q 313.898 93.228 317.969 92.356 L 317.969 92.356 L 319.519 91.968 L 320.101 95.748 L 320.101 95.748 Q 316.903 97.105 311.475 98.171 L 311.475 98.171 L 309.537 98.558 L 309.537 98.558 Q 307.695 108.735 302.074 116.246 L 302.074 116.246 L 302.074 116.246 Q 296.453 123.757 287.633 123.757 Z  M 292.867 115.422 L 292.867 115.422 L 292.867 115.422 Q 296.938 115.422 300.184 110.188 L 300.184 110.188 L 300.184 110.188 Q 303.431 104.955 304.691 99.14 L 304.691 99.14 L 304.691 99.14 Q 294.321 99.14 294.321 91.386 L 294.321 91.386 L 294.321 91.386 Q 294.321 88.285 295.581 85.571 L 295.581 85.571 L 296.065 84.602 L 296.065 84.602 Q 295.678 84.408 295.096 84.408 L 295.096 84.408 L 295.096 84.408 Q 294.515 84.408 294.224 84.602 L 294.224 84.602 L 294.224 84.602 Q 291.801 86.153 289.669 91.871 L 289.669 91.871 L 289.669 91.871 Q 287.537 97.589 287.537 104.955 L 287.537 104.955 L 287.537 104.955 Q 287.537 115.422 292.867 115.422 Z  M 324.656 58.628 L 324.656 58.628 L 324.656 58.628 Q 324.656 55.43 324.075 54.073 L 324.075 54.073 L 324.075 54.073 Q 331.634 51.456 338.322 51.456 L 338.322 51.456 L 338.322 51.456 Q 339.194 52.329 339.194 55.914 L 339.194 55.914 L 339.194 55.914 Q 339.194 63.959 333.863 86.734 L 333.863 86.734 L 333.863 86.734 Q 342.489 79.659 350.921 79.659 L 350.921 79.659 L 350.921 79.659 Q 354.701 79.659 357.317 81.985 L 357.317 81.985 L 357.317 81.985 Q 359.934 84.311 359.934 88.77 L 359.934 88.77 L 359.934 88.77 Q 359.934 97.105 346.269 100.884 L 346.269 100.884 L 346.269 100.884 Q 349.467 110.964 351.89 114.55 L 351.89 114.55 L 351.89 114.55 Q 352.956 116.1 353.441 116.1 L 353.441 116.1 L 353.441 116.1 Q 354.507 116.1 357.899 114.453 L 357.899 114.453 L 358.965 113.968 L 360.516 117.263 L 360.516 117.263 Q 358.19 119.396 354.071 121.576 L 354.071 121.576 L 354.071 121.576 Q 349.952 123.757 346.56 123.757 L 346.56 123.757 L 346.56 123.757 Q 339 123.757 335.995 109.995 L 335.995 109.995 L 335.995 109.995 Q 334.639 104.083 334.348 98.946 L 334.348 98.946 L 334.348 98.946 Q 340.551 97.492 343.604 95.408 L 343.604 95.408 L 343.604 95.408 Q 346.656 93.325 346.656 90.078 L 346.656 90.078 L 346.656 90.078 Q 346.656 86.831 343.361 86.831 L 343.361 86.831 L 343.361 86.831 Q 340.066 86.831 332.313 93.422 L 332.313 93.422 L 332.313 93.422 Q 327.467 113.871 327.467 121.431 L 327.467 121.431 L 327.467 121.431 Q 322.136 122.982 313.607 122.982 L 313.607 122.982 L 313.607 122.982 Q 313.511 121.334 313.511 120.074 L 313.511 120.074 L 313.511 120.074 Q 313.511 115.907 319.083 91.58 L 319.083 91.58 L 319.083 91.58 Q 324.656 67.254 324.656 58.628 Z  M 373.89 58.628 L 373.89 58.628 L 373.89 58.628 Q 373.89 55.43 373.309 54.073 L 373.309 54.073 L 373.309 54.073 Q 380.868 51.456 387.556 51.456 L 387.556 51.456 L 387.556 51.456 Q 388.428 52.329 388.428 55.914 L 388.428 55.914 L 388.428 55.914 Q 388.428 63.959 383.098 86.734 L 383.098 86.734 L 383.098 86.734 Q 391.723 79.659 400.155 79.659 L 400.155 79.659 L 400.155 79.659 Q 403.935 79.659 406.552 81.985 L 406.552 81.985 L 406.552 81.985 Q 409.168 84.311 409.168 88.77 L 409.168 88.77 L 409.168 88.77 Q 409.168 97.105 395.503 100.884 L 395.503 100.884 L 395.503 100.884 Q 398.701 110.964 401.124 114.55 L 401.124 114.55 L 401.124 114.55 Q 402.19 116.1 402.675 116.1 L 402.675 116.1 L 402.675 116.1 Q 403.741 116.1 407.133 114.453 L 407.133 114.453 L 408.199 113.968 L 409.75 117.263 L 409.75 117.263 Q 407.424 119.396 403.305 121.576 L 403.305 121.576 L 403.305 121.576 Q 399.186 123.757 395.794 123.757 L 395.794 123.757 L 395.794 123.757 Q 388.234 123.757 385.23 109.995 L 385.23 109.995 L 385.23 109.995 Q 383.873 104.083 383.582 98.946 L 383.582 98.946 L 383.582 98.946 Q 389.785 97.492 392.838 95.408 L 392.838 95.408 L 392.838 95.408 Q 395.891 93.325 395.891 90.078 L 395.891 90.078 L 395.891 90.078 Q 395.891 86.831 392.596 86.831 L 392.596 86.831 L 392.596 86.831 Q 389.3 86.831 381.547 93.422 L 381.547 93.422 L 381.547 93.422 Q 376.701 113.871 376.701 121.431 L 376.701 121.431 L 376.701 121.431 Q 371.37 122.982 362.842 122.982 L 362.842 122.982 L 362.842 122.982 Q 362.745 121.334 362.745 120.074 L 362.745 120.074 L 362.745 120.074 Q 362.745 115.907 368.318 91.58 L 368.318 91.58 L 368.318 91.58 Q 373.89 67.254 373.89 58.628 Z  M 411.785 105.827 L 411.785 105.827 L 411.785 105.827 Q 411.785 93.712 419.103 86.686 L 419.103 86.686 L 419.103 86.686 Q 426.42 79.659 435.724 79.659 L 435.724 79.659 L 435.724 79.659 Q 441.442 79.659 445.125 82.47 L 445.125 82.47 L 445.125 82.47 Q 448.808 85.281 448.808 89.981 L 448.808 89.981 L 448.808 89.981 Q 448.808 94.682 446.433 97.88 L 446.433 97.88 L 446.433 97.88 Q 444.059 101.078 440.667 102.823 L 440.667 102.823 L 440.667 102.823 Q 433.786 106.215 428.067 107.087 L 428.067 107.087 L 425.741 107.378 L 425.741 107.378 Q 426.42 116.488 433.204 116.488 L 433.204 116.488 L 433.204 116.488 Q 435.53 116.488 438.147 115.325 L 438.147 115.325 L 438.147 115.325 Q 440.764 114.162 442.217 112.999 L 442.217 112.999 L 443.671 111.836 L 445.997 114.937 L 445.997 114.937 Q 445.222 116.004 442.896 117.748 L 442.896 117.748 L 442.896 117.748 Q 440.57 119.493 438.535 120.656 L 438.535 120.656 L 438.535 120.656 Q 432.913 123.757 426.226 123.757 L 426.226 123.757 L 426.226 123.757 Q 419.539 123.757 415.662 119.008 L 415.662 119.008 L 415.662 119.008 Q 411.785 114.259 411.785 105.827 Z  M 425.644 102.629 L 425.644 102.629 Q 430.587 101.757 433.495 98.461 L 433.495 98.461 L 433.495 98.461 Q 436.402 95.166 436.402 89.933 L 436.402 89.933 L 436.402 89.933 Q 436.402 84.699 433.301 84.699 L 433.301 84.699 L 433.301 84.699 Q 429.618 84.699 427.631 90.95 L 427.631 90.95 L 427.631 90.95 Q 425.644 97.201 425.644 102.629 L 425.644 102.629 L 425.644 102.629 Z  M 452.781 122.885 L 452.781 122.885 L 452.103 122.885 L 452.103 122.885 Q 451.909 122.109 451.909 119.347 L 451.909 119.347 L 451.909 119.347 Q 451.909 116.585 454.526 104.47 L 454.526 104.47 L 454.526 104.47 Q 457.143 92.356 457.143 90.611 L 457.143 90.611 L 457.143 90.611 Q 457.143 87.607 454.429 84.021 L 454.429 84.021 L 453.557 82.858 L 453.654 81.598 L 453.654 81.598 Q 458.887 80.144 470.421 80.144 L 470.421 80.144 L 470.421 80.144 Q 471.584 82.664 471.584 87.219 L 471.584 87.219 L 471.584 87.219 Q 472.65 85.474 476.042 82.567 L 476.042 82.567 L 476.042 82.567 Q 479.434 79.659 483.02 79.659 L 483.02 79.659 L 483.02 79.659 Q 488.253 79.659 488.253 88.77 L 488.253 88.77 L 488.253 88.77 Q 487.769 89.351 486.945 90.272 L 486.945 90.272 L 486.945 90.272 Q 486.121 91.193 483.65 92.84 L 483.65 92.84 L 483.65 92.84 Q 481.178 94.488 478.852 94.875 L 478.852 94.875 L 478.852 94.875 Q 478.755 94.875 477.205 92.259 L 477.205 92.259 L 477.205 92.259 Q 475.654 89.642 474.879 89.642 L 474.879 89.642 L 474.879 89.642 Q 472.456 90.514 470.614 92.549 L 470.614 92.549 L 470.614 92.549 Q 466.156 112.611 466.156 118.523 L 466.156 118.523 L 466.156 118.523 Q 466.156 120.656 466.253 121.528 L 466.253 121.528 L 466.253 121.528 Q 462.861 122.885 452.781 122.885 Z " fill="rgb(0,0,0)"/><g><path d=" M 130.077 31.337 M 88.303 19.844 L 88.303 19.844 L 88.303 19.844 L 88.303 19.844 Q 87.768 19.622 87.149 19.229 Q 86.993 9.476 88.098 0 L 162.445 34.207 L 158.642 49.996 L 88.303 19.844 Z " fill="rgb(0,0,0)"/><path d=" M 46.522 31.337 M 88.296 19.844 C 88.332 19.845 88.111 -0.006 88.098 0 C 87.371 0.313 17.487 33.097 14.154 34.207 L 14.154 34.207 L 14.154 34.207 Q 17.817 49.82 17.957 49.996 Q 88.293 19.844 88.296 19.844 Z " fill="rgb(0,0,0)"/></g></g></svg>