<svg xmlns="http://www.w3.org/2000/svg" style="isolation:isolate" viewBox="0 0 162.445 177" width="216.593" height="236"><defs><clipPath id="a"><path d="M0 0h162.445v177H0z"/></clipPath></defs><g clip-path="url(#a)"><path d="M90.725 55.399q-1.045 7.452 5.747 17.487 6.792 10.035 16.713 17.583-2.682 2.132-7.806 12.358-5.124 10.225-8.082 15.757-2.958 5.532-6.83 10.435-3.872 4.903-7.193 4.518-.687-.079-1.017-.234l-1.622 4q5.095 5.128 12.309 5.963 7.214.836 10.621-2.55 3.407-3.386 7.263-14.69.515-1.452 3.044-9.303 5.574-17.153 8.213-20.919.674.195 2.735.433 2.061.239 3.184-.445.894-.711 1.252-3.811.357-3.099-.024-4.83-.38-1.731-3.644-2.109-3.263-.378-6.465 1.229-3.805-3.233-8.974-11.743-2.532-4.608-1.672-12.07.384-3.329 1.38-6.936-11.071-6.634-13.106-7.103l-2.035-.468q-3.303 1.479-3.991 7.448Zm51.422 2.699-10.941-.27c-1.188-.03-2.07.908-1.969 2.092q5.273 61.622 4.404 78.645c-.061 1.187.854 2.11 2.042 2.059l12.926-.551a2.064 2.064 0 0 0 1.983-2.239l-6.123-77.536c-.093-1.185-1.134-2.171-2.322-2.2Z"/><path d="M56.396 85.126q3.806-.859 7.366-5.647 3.56-4.788 3.56-11.97 0-7.181-5.095-10.496-5.094-2.258-15.652-2.258-11.636 1.328-17.909 5.991c-2.376 1.246-6.683 5.921-10.227 10.768-3.438 4.701-5.959 12.68-6.461 14.757-1.102 5.091-2.406 12.078-2.154 20.488.252 8.411 4.493 29.948 17.23 40.136 12.737 10.188 28.267 16.759 46.648 19.383 17.06 2.9 29.416 1.346 36.155 0 6.738-1.346 24.525-10.082 29.191-12.922 4.665-2.84 10.295-7.662 15.711-12.418q1.855-2.221 2.297-2.988c1.948-3.384 2.861-3.032 2.039.785q-.395 1.833-2.26 5.391c-4.423 6.673-10.652 14.001-19.941 19.999-5.25 3.298-18.924 10.191-28.417 11.641-9.492 1.449-21.557 1.831-35.837 0-23.018-3.467-40.438-11.725-54.201-23.691C5.853 141.174.262 120.315.079 106.759-.444 93.195 1.653 83.733 5.885 74.2c1.407-4.721 8.518-14.514 14.971-19.033 6.659-5.51 16.875-8.352 29.893-8.834q16.327 0 25.903 5.156 9.575 5.156 9.575 15.836 0 8.348-5.769 13.872-5.77 5.525-14.732 8.348 8.962 1.351 14.241 6.752c3.128 4.035 3.626 5.535 4.296 6.875q1.596 4.542 1.596 9.698 0 12.522-7.488 20.624-7.489 8.103-17.187 8.103-6.629 0-11.049-3.99-4.419-3.99-4.419-11.54 0-7.55 5.585-14.363 5.586-6.813 13.688-10.742-3.191-8.225-11.416-8.225h-.86q-.736-3.192.369-7.243 1.841 0 3.314-.368Zm-17.629-24.38q14.621-3.209 16.463-2.595-13.245 67.59-14.349 80.112H25.845l12.922-77.517Zm19.471 70.416q3.314 0 5.892-6.077 2.578-6.077 2.578-13.688l-.123-2.087q-4.542 1.719-8.654 6.261-4.113 4.542-4.113 9.698 0 3.069 1.412 4.481t3.008 1.412ZM88.303 19.844q-.535-.222-1.154-.615-.156-9.753.949-19.229l74.347 34.207-3.803 15.789-70.339-30.152Z"/><path d="M88.296 19.844c.036.001-.185-19.85-.198-19.844-.727.313-70.611 33.097-73.944 34.207q3.663 15.613 3.803 15.789 70.336-30.152 70.339-30.152Z"/></g></svg>